<svg width="65" height="62" viewBox="0 0 65 62" fill="none" xmlns="http://www.w3.org/2000/svg">
<path d="M19.2222 48.7817H29.5889V43.4096H18.8333V33.5312H13.4556V43.0545C6.9 41.9445 5.38889 38.2595 5.38889 33.176H0C0 42.3219 4.51111 47.3832 13.7556 48.5375C15.0222 57.2727 20.3333 61.7014 29.6111 61.7014V56.3293C23.4222 56.3293 20.2556 54.1427 19.2222 48.8039V48.7817Z" fill="#00B9EA"/>
<path d="M64.0217 33.1539H58.644C58.644 38.2374 57.1329 41.9113 50.5995 43.0324V33.5202H45.2217V43.3986H34.7662V48.7707H44.8329C43.7995 54.0984 40.6329 56.285 34.4551 56.285V61.6571C43.7329 61.6571 49.044 57.2284 50.3106 48.4821C59.4217 47.2834 64.044 42.1444 64.044 33.1428L64.0217 33.1539Z" fill="#FAA31B"/>
<path d="M29.6 5.38319V0C20.3333 0 15.0222 4.42865 13.7556 13.1527C4.51111 14.3071 0 19.3573 0 28.5143H5.37778C5.37778 23.4197 6.88889 19.7458 13.4444 18.6358V28.5587H18.8222V18.2696H29.5778V12.8975H19.2222C20.2556 7.56977 23.4222 5.38319 29.6 5.38319Z" fill="#ED2777"/>
<path d="M50.2891 13.1749C49.0225 4.43975 43.7114 0 34.4336 0V5.38319C40.6225 5.38319 43.7892 7.56977 44.8114 12.8975H34.7447V18.2696H45.2003V28.5587H50.578V18.6358C57.1114 19.7569 58.6225 23.4308 58.6225 28.5143H64.0003C64.0003 19.5127 59.378 14.3737 50.278 13.1749H50.2891Z" fill="#00986B"/>
</svg>
